<svg width="46" height="32" viewBox="0 0 46 32" fill="none" xmlns="http://www.w3.org/2000/svg">
<path d="M30.2869 27.2429H14.8099C14.6027 28.5509 13.9356 29.742 12.9286 30.6021C11.9216 31.4621 10.6407 31.9346 9.31642 31.9346C7.99212 31.9346 6.71126 31.4621 5.70424 30.6021C4.69722 29.742 4.03012 28.5509 3.82292 27.2429H1.88591C1.39109 27.2397 0.917742 27.0404 0.569628 26.6887C0.221514 26.337 0.027054 25.8618 0.0289175 25.3669V1.87695C0.0267885 1.38195 0.221119 0.906335 0.569262 0.554443C0.917404 0.202551 1.39092 0.00317363 1.88591 0H27.4369C27.9318 0.00317353 28.4052 0.202522 28.7532 0.554443C29.1012 0.906364 29.2953 1.38204 29.2929 1.87695V3.78198H36.4139C36.4943 3.78164 36.5743 3.79208 36.6519 3.81299C38.9519 4.01299 40.1089 5.2129 41.3289 7.2749L44.8879 13.3689C44.9728 13.5136 45.0176 13.6782 45.0179 13.8459V26.304C45.019 26.5515 44.9217 26.7892 44.7475 26.9651C44.5734 27.141 44.3365 27.2406 44.0889 27.2419H41.2749C41.0677 28.5499 40.4006 29.741 39.3936 30.6011C38.3866 31.4611 37.1057 31.9336 35.7814 31.9336C34.4571 31.9336 33.1763 31.4611 32.1692 30.6011C31.1622 29.741 30.4951 28.5499 30.2879 27.2419L30.2869 27.2429ZM32.0649 26.304C32.0728 27.0369 32.2974 27.7511 32.7103 28.3567C33.1232 28.9623 33.7061 29.4322 34.3855 29.7073C35.0649 29.9824 35.8106 30.0503 36.5285 29.9026C37.2465 29.7548 37.9047 29.398 38.4203 28.877C38.9359 28.3559 39.2858 27.6941 39.4261 26.9746C39.5663 26.2551 39.4906 25.5103 39.2084 24.8337C38.9263 24.1572 38.4503 23.5794 37.8404 23.1729C37.2305 22.7663 36.5139 22.5491 35.7809 22.5488C34.7906 22.5552 33.8432 22.9543 33.1465 23.6582C32.4499 24.3621 32.0609 25.3136 32.0649 26.304ZM5.60094 26.304C5.60883 27.0369 5.83336 27.7511 6.24629 28.3567C6.65923 28.9623 7.2421 29.4322 7.92153 29.7073C8.60095 29.9824 9.34657 30.0503 10.0645 29.9026C10.7825 29.7548 11.4407 29.398 11.9563 28.877C12.4719 28.3559 12.8218 27.6941 12.9621 26.9746C13.1023 26.2551 13.0266 25.5103 12.7444 24.8337C12.4623 24.1572 11.9863 23.5794 11.3764 23.1729C10.7665 22.7663 10.0499 22.5491 9.31691 22.5488C8.32639 22.5549 7.37875 22.9537 6.6819 23.6577C5.98505 24.3617 5.59594 25.3134 5.59993 26.304H5.60094ZM41.2729 25.366H43.1589V19.7478H40.4229C40.3003 19.7473 40.179 19.7227 40.066 19.6753C39.9529 19.6279 39.8503 19.5585 39.764 19.4714C39.6777 19.3843 39.6095 19.281 39.5631 19.1675C39.5168 19.054 39.4933 18.9324 39.4939 18.8098V16.9629C39.4936 16.2423 39.7692 15.5488 40.2639 15.0249H33.8849C33.8077 15.0248 33.7308 15.015 33.6559 14.9958C32.9512 14.933 32.2957 14.6081 31.819 14.0852C31.3424 13.5623 31.0794 12.8794 31.0819 12.1719V7.47192C31.0813 7.34927 31.1048 7.22758 31.1511 7.11401C31.1974 7.00044 31.2657 6.89725 31.3519 6.81006C31.4382 6.72286 31.5408 6.6535 31.6539 6.60596C31.767 6.55841 31.8883 6.53361 32.0109 6.53296H38.4939C38.1496 6.21428 37.7422 5.97123 37.2982 5.81982C36.8541 5.66842 36.3832 5.61187 35.9159 5.65381H29.2929V25.3618H30.2869C30.4941 24.0538 31.1612 22.8627 32.1683 22.0027C33.1753 21.1426 34.4561 20.6702 35.7804 20.6702C37.1047 20.6702 38.3856 21.1426 39.3926 22.0027C40.3996 22.8627 41.0667 24.0538 41.2739 25.3618L41.2729 25.366ZM14.8089 25.366H27.4359V1.87598H1.88591V25.366H3.82292C4.03012 24.058 4.69722 22.8666 5.70424 22.0066C6.71126 21.1465 7.99212 20.6741 9.31642 20.6741C10.6407 20.6741 11.9216 21.1465 12.9286 22.0066C13.9356 22.8666 14.6027 24.058 14.8099 25.366H14.8089ZM41.3509 16.9658V17.875H43.1589V16.0278H42.2799C42.0331 16.0294 41.7969 16.1288 41.623 16.304C41.4491 16.4792 41.3516 16.716 41.3519 16.9629L41.3509 16.9658ZM32.9379 12.1738C32.9369 12.4263 33.0359 12.6691 33.2135 12.8486C33.391 13.0282 33.6324 13.13 33.8849 13.1318C33.9488 13.1316 34.0125 13.1384 34.0749 13.1519H42.5999L39.8339 8.41602H32.9339L32.9379 12.1738ZM33.0309 26.3059C33.028 25.5734 33.3158 24.8695 33.8312 24.3489C34.3465 23.8283 35.0474 23.5333 35.7799 23.5288C36.0287 23.5288 36.2673 23.6278 36.4432 23.8037C36.6191 23.9796 36.7179 24.218 36.7179 24.4668C36.7179 24.7156 36.6191 24.9542 36.4432 25.1301C36.2673 25.306 36.0287 25.4048 35.7799 25.4048C35.6016 25.4032 35.4268 25.4548 35.2778 25.5527C35.1287 25.6507 35.0121 25.7905 34.9428 25.9548C34.8734 26.1191 34.8544 26.3005 34.8883 26.4756C34.9221 26.6507 35.0072 26.8118 35.1327 26.9385C35.2583 27.0651 35.4186 27.1516 35.5934 27.187C35.7682 27.2224 35.9495 27.2051 36.1145 27.1372C36.2794 27.0693 36.4204 26.9538 36.5197 26.8057C36.6189 26.6575 36.6719 26.4833 36.6719 26.3049C36.6719 26.0587 36.7697 25.8226 36.9439 25.6484C37.118 25.4743 37.3542 25.3765 37.6004 25.3765C37.8467 25.3765 38.0829 25.4743 38.257 25.6484C38.4311 25.8226 38.5289 26.0587 38.5289 26.3049C38.5289 27.0343 38.2392 27.7338 37.7235 28.2495C37.2077 28.7652 36.5083 29.0549 35.7789 29.0549C35.0496 29.0549 34.3501 28.7652 33.8344 28.2495C33.3186 27.7338 33.0289 27.0343 33.0289 26.3049L33.0309 26.3059ZM6.56691 26.3059C6.56398 25.5734 6.85181 24.8695 7.36717 24.3489C7.88254 23.8283 8.58339 23.5333 9.31594 23.5288C9.56471 23.5288 9.8033 23.6278 9.9792 23.8037C10.1551 23.9796 10.2539 24.218 10.2539 24.4668C10.2539 24.7156 10.1551 24.9542 9.9792 25.1301C9.8033 25.306 9.56471 25.4048 9.31594 25.4048C9.1376 25.4032 8.96279 25.4548 8.81374 25.5527C8.66469 25.6507 8.54809 25.7905 8.47875 25.9548C8.4094 26.1191 8.39042 26.3005 8.42424 26.4756C8.45806 26.6507 8.54315 26.8118 8.66869 26.9385C8.79423 27.0651 8.95458 27.1516 9.12938 27.187C9.30418 27.2224 9.48555 27.2051 9.65047 27.1372C9.81539 27.0693 9.95643 26.9538 10.0557 26.8057C10.1549 26.6575 10.2079 26.4833 10.2079 26.3049C10.2079 26.0587 10.3057 25.8226 10.4799 25.6484C10.654 25.4743 10.8902 25.3765 11.1364 25.3765C11.3827 25.3765 11.6189 25.4743 11.793 25.6484C11.9671 25.8226 12.0649 26.0587 12.0649 26.3049C12.0649 27.0343 11.7752 27.7338 11.2595 28.2495C10.7438 28.7652 10.0443 29.0549 9.31493 29.0549C8.58558 29.0549 7.8861 28.7652 7.37038 28.2495C6.85465 27.7338 6.56493 27.0343 6.56493 26.3049L6.56691 26.3059ZM4.70894 5.65991C4.46017 5.65991 4.22158 5.56116 4.04567 5.38525C3.86976 5.20934 3.77092 4.9707 3.77092 4.72192C3.77092 4.47315 3.86976 4.2345 4.04567 4.05859C4.22158 3.88268 4.46017 3.78394 4.70894 3.78394H24.6089C24.8577 3.78394 25.0963 3.88268 25.2722 4.05859C25.4481 4.2345 25.5469 4.47315 25.5469 4.72192C25.5469 4.9707 25.4481 5.20934 25.2722 5.38525C25.0963 5.56116 24.8577 5.65991 24.6089 5.65991H4.70894Z" fill="#F16D7F"/>
</svg>
